Silent Hill Revelations 2012 WEBRip x264 AC3-JDocsis3


General
Format : Matroska
Format version : Version 2
File size : 1.20 GiB
Duration : 1h 29mn
Overall bit rate : 1 913 Kbps
Encoded date : UTC 2013-01-20 22:49:38
Writing library : libebml v1.2.3 + libmatroska v1.3.0


Video
ID : 1
Format : AVC
Format/Info : Advanced Video Codec
Format profile : High@L4.1
Format settings, CABAC : Yes
Format settings, ReFrames : 5 frames
Codec ID : V_MPEG4/ISO/AVC
Duration : 1h 29mn
Bit rate : 1 720 Kbps
Width : 720 pixels
Height : 296 pixels
Display aspect ratio : 2.40:1
Frame rate mode : Constant
Frame rate : 23.976 fps
Color space : YUV
Chroma subsampling : 4:2:0
Bit depth : 8 bits
Scan type : Progressive
Bits/(Pixel*Frame) : 0.337
Stream size : 1.05 GiB (88%)
Default : Yes
Forced : No


Audio
ID : 2
Format : AC-3
Format/Info : Audio Coding 3
Mode extension : CM (complete main)
Format settings, Endianness : Big
Codec ID : A_AC3
Duration : 1h 29mn
Bit rate mode : Constant
Bit rate : 192 Kbps
Channel(s) : 2 channels
Channel positions : Front: L R
Sampling rate : 44.1 KHz
Bit depth : 16 bits
Compression mode : Lossy
Stream size : 123 MiB (10%)
Default : Yes
Forced : No


IMDb: http://www.imdb.com/title/tt0938330/


Poster:

 
http://i.imgur.com/RDxCKgn.jpg


Screenshots:

 
http://i.imgur.com/WHczoSN.jpg

 
http://i.imgur.com/ujIRMZP.jpg

 
http://i.imgur.com/zSNGf1P.jpg


SEED AND ENJOY!